<svg width="35" height="36" viewBox="0 0 35 36" fill="none" xmlns="http://www.w3.org/2000/svg">
<rect x="5.52051" y="6.02051" width="29.4795" height="29.4795" rx="3.42271" fill="url(#paint0_linear_3461_87068)"/>
<path d="M17.334 12.5474C17.334 14.0039 18.5147 15.1846 19.9712 15.1846H23.5298C24.9863 15.1846 26.167 16.3653 26.167 17.8218V24.3609C26.167 25.8173 24.9863 26.998 23.5298 26.998H16.9907C15.5342 26.998 14.3535 25.8173 14.3535 24.3609V20.4712C14.3535 19.0147 13.1728 17.834 11.7163 17.834H2.63719C1.18071 17.834 0 16.6533 0 15.1968V3.13719C0 1.68071 1.18071 0.5 2.63719 0.5H14.6968C16.1533 0.5 17.334 1.68071 17.334 3.13719V12.5474Z" fill="#2D58D3"/>
<defs>
<linearGradient id="paint0_linear_3461_87068" x1="-4.71692" y1="-4.56312" x2="29.7473" y2="39.8564" gradientUnits="userSpaceOnUse">
<stop stop-color="#BE5DFF"/>
<stop offset="1" stop-color="#8AEDFF"/>
</linearGradient>
</defs>
</svg>
